<svg width="1440" height="149" viewBox="0 0 1440 149" fill="none" xmlns="http://www.w3.org/2000/svg">
<rect width="1440" height="149" fill="#F2F2F2"/>
<g clip-path="url(#clip0_2403_681)">
<path d="M111.603 85.0513C110.468 83.3682 109.905 81.3503 110 79.3077V70.7949C109.863 68.7303 110.39 66.6766 111.502 64.9487C112.604 63.6154 114.307 63 116.811 63C119.315 63 120.917 63.6154 121.919 64.7436C123.006 66.1725 123.541 67.9618 123.421 69.7692V71.8205H118.513V69.4615C118.553 68.7638 118.451 68.0653 118.213 67.4103C118.086 67.1458 117.884 66.9264 117.634 66.7802C117.385 66.634 117.098 66.5676 116.811 66.5897C116.11 66.5897 115.609 66.7949 115.408 67.3077C115.182 68.0364 115.08 68.7998 115.108 69.5641V80.5385C115.055 81.2799 115.193 82.0227 115.509 82.6923C115.709 83.2051 116.21 83.4103 116.911 83.4103C117.612 83.4103 118.013 83.2051 118.213 82.6923C118.441 81.9992 118.542 81.2692 118.513 80.5385V78.0769H123.421V80.1282C123.523 81.9651 122.991 83.7803 121.919 85.2564C120.917 86.4872 119.214 87.1026 116.811 87.1026C114.407 87 112.604 86.3846 111.603 85.0513Z" fill="#111111"/>
<path d="M129.33 63.3076H135.039L139.246 86.6922H134.638L133.837 81.7692H130.532L129.731 86.6922H125.023L129.33 63.3076ZM133.437 78.6922L132.235 69.564L131.033 78.6922H133.437Z" fill="#111111"/>
<path d="M142.751 67.2051H139.346V63.3076H151.264V67.1025H147.859V86.6922H142.751V67.2051Z" fill="#111111"/>
<g filter="url(#filter0_d_2403_681)">
<path d="M160.379 63.3076H169.192V65.7692H163.484V73.4615H168.091V75.8204H163.484V84.4358H169.192V86.7948H160.279V63.3076H160.379Z" fill="#111111"/>
</g>
<path d="M171.797 63.3076H174L180.51 78.7948V63.3076H183.114V86.6922H181.111L174.501 70.6922V86.6922H171.797V63.3076Z" fill="#111111"/>
<path d="M186.119 63.3076H194.933V65.7692H189.224V73.4615H193.831V75.8204H189.224V84.4358H194.933V86.7948H186.119V63.3076Z" fill="#111111"/>
<path d="M197.537 63.3076H202.144C203.956 63.1794 205.758 63.6857 207.252 64.7435C208.354 65.6666 208.854 67.3076 208.854 69.4614C208.854 72.4358 207.953 74.282 206.05 74.8973L209.255 86.5897H206.15L203.146 75.6153H200.642V86.5897H197.437V63.3076H197.537ZM201.944 73.3589C202.976 73.446 204.005 73.1553 204.848 72.5384C205.449 72.0255 205.75 70.9999 205.75 69.4614C205.777 68.6972 205.676 67.9338 205.449 67.205C205.224 66.6821 204.837 66.2496 204.347 65.9743C203.658 65.6524 202.9 65.5114 202.144 65.564H200.742V73.2563H201.944V73.3589Z" fill="#111111"/>
<path d="M212.861 84.9487C211.82 83.1554 211.331 81.0821 211.458 78.9999V71.2051C211.434 69.7188 211.602 68.2357 211.959 66.7948C212.294 65.7181 212.962 64.7822 213.862 64.1281C214.981 63.4503 216.271 63.1289 217.568 63.2051C219.671 63.2051 221.174 63.7179 222.075 64.8461C223.112 66.3358 223.608 68.1498 223.477 69.9743V70.7948H220.473V70.0769C220.477 69.2179 220.41 68.3601 220.272 67.5128C220.188 66.9773 219.9 66.4979 219.471 66.1794C218.908 65.801 218.24 65.621 217.568 65.6666C216.85 65.6195 216.139 65.8379 215.565 66.282C215.329 66.4853 215.137 66.7357 214.999 67.0179C214.861 67.3 214.781 67.608 214.764 67.923C214.632 68.8399 214.565 69.7654 214.563 70.6922V79.4102C214.49 80.7384 214.694 82.0674 215.164 83.3076C215.565 84.1281 216.366 84.4358 217.568 84.4358C218.043 84.4964 218.524 84.4119 218.952 84.1929C219.379 83.9739 219.734 83.6302 219.972 83.2051C220.501 81.9081 220.741 80.5064 220.673 79.1025V77.4615H217.768V75.1025H223.577V86.6923H221.574L221.274 84.0256C221.011 84.9193 220.464 85.6975 219.72 86.2364C218.976 86.7753 218.078 87.0441 217.167 86.9999C216.34 87.0498 215.513 86.8885 214.761 86.5304C214.01 86.1724 213.357 85.6289 212.861 84.9487Z" fill="#111111"/>
<path d="M229.988 78.4871L225.08 63.4102H228.085L231.59 74.6922L234.995 63.4102H238L233.092 78.4871V86.6922H230.088V78.4871H229.988Z" fill="#111111"/>
</g>
<rect x="110.5" y="63.5" width="127" height="23" stroke="black"/>
<path d="M1187.09 85.4899C1187.09 84.6349 1187.64 84.1738 1188.75 84.1067L1193 84.1319C1193.29 84.1319 1193.48 84.2576 1193.57 84.5091C1194.01 85.7665 1194.5 86.8521 1195.04 87.7658C1195.58 88.6795 1196.29 89.7315 1197.17 90.9218C1197.24 91.0727 1197.37 91.1482 1197.54 91.1482C1197.67 91.1482 1197.78 91.0895 1197.85 90.9721L1197.94 90.6955L1197.97 86.3449C1197.97 86.0431 1197.89 85.842 1197.72 85.7414C1197.56 85.6408 1197.26 85.5653 1196.83 85.515C1196.48 85.4647 1196.31 85.2803 1196.31 84.9618C1196.31 84.8947 1196.32 84.8444 1196.34 84.8109C1196.74 83.7211 1197.88 83.1763 1199.77 83.1763L1201.36 83.1511C1202.09 83.1511 1202.69 83.3104 1203.16 83.6289C1203.64 83.9475 1203.88 84.4504 1203.88 85.1378V90.8464C1204.01 90.9302 1204.13 90.9721 1204.25 90.9721C1204.53 90.9721 1204.78 90.8212 1204.99 90.5195C1207.08 87.9376 1208.22 86.2108 1208.39 85.339C1208.39 85.3222 1208.41 85.2803 1208.44 85.2133C1208.58 84.9618 1208.8 84.7438 1209.1 84.5594C1209.41 84.375 1209.67 84.2492 1209.9 84.1822C1209.98 84.1487 1210.06 84.1319 1210.16 84.1319H1214.58L1214.87 84.157C1215.25 84.157 1215.54 84.3163 1215.75 84.6349C1215.83 84.7354 1215.88 84.8444 1215.91 84.9618C1215.94 85.0791 1215.96 85.1965 1215.97 85.3138C1215.98 85.4312 1215.98 85.4983 1215.98 85.515V85.6911C1215.85 86.3784 1215.51 87.1119 1214.97 87.8915C1214.42 88.6711 1213.73 89.5135 1212.9 90.4189C1212.06 91.3242 1211.54 91.9194 1211.33 92.2044C1211.16 92.4056 1211.07 92.59 1211.07 92.7576C1211.07 92.8918 1211.15 93.0426 1211.3 93.2103L1215.47 97.8375C1215.69 98.1058 1215.81 98.3992 1215.81 98.7177C1215.81 99.1033 1215.64 99.4218 1215.3 99.6733C1214.95 99.9248 1214.54 100.067 1214.07 100.101L1213.58 100.126H1209.24C1209.22 100.126 1209.19 100.13 1209.13 100.139C1209.07 100.147 1209.03 100.151 1209.01 100.151C1208.6 100.151 1208.21 99.9919 1207.84 99.6733C1207.71 99.5392 1206.82 98.55 1205.16 96.7059C1205.07 96.5885 1204.93 96.4795 1204.76 96.3789C1204.69 96.6472 1204.59 97.0328 1204.46 97.5357C1204.34 98.0387 1204.25 98.3992 1204.19 98.6171L1204.1 99.0446C1203.91 99.6314 1203.51 99.9835 1202.91 100.101L1202.51 100.126H1199.71C1198.13 100.126 1196.55 99.4889 1194.98 98.2147C1193.41 96.9406 1192 95.2934 1190.75 93.2732C1189.49 91.2529 1188.32 88.9016 1187.23 86.2192C1187.14 86.0012 1187.09 85.7581 1187.09 85.4899ZM1204.25 92.0032C1203.85 92.0032 1203.49 91.9068 1203.16 91.714C1202.84 91.5212 1202.68 91.2571 1202.68 90.9218V85.1378C1202.68 84.8025 1202.58 84.5636 1202.39 84.4211C1202.2 84.2786 1201.87 84.2073 1201.39 84.2073L1199.77 84.2576C1198.95 84.2576 1198.33 84.3834 1197.91 84.6349C1198.75 84.9869 1199.17 85.5569 1199.17 86.3449V90.7709C1199.13 91.1901 1198.94 91.538 1198.6 91.8146C1198.25 92.0912 1197.87 92.2295 1197.45 92.2295C1196.88 92.2295 1196.44 91.9864 1196.14 91.5002C1194.66 89.5219 1193.55 87.6442 1192.83 85.8671L1192.57 85.2133L1188.78 85.1881C1188.53 85.1881 1188.39 85.2007 1188.36 85.2258C1188.33 85.251 1188.32 85.3222 1188.32 85.4396C1188.32 85.5905 1188.34 85.7497 1188.38 85.9174L1188.98 87.3257C1190.57 90.9637 1192.31 93.8306 1194.19 95.9263C1196.06 98.0219 1197.9 99.0698 1199.71 99.0698H1202.56C1202.68 99.0698 1202.76 99.0404 1202.82 98.9817C1202.88 98.9231 1202.93 98.8099 1202.96 98.6422L1203.02 98.3908L1203.56 96.1778C1203.71 95.876 1203.85 95.6748 1203.96 95.5742C1204.17 95.3898 1204.42 95.2976 1204.7 95.2976C1205.16 95.2976 1205.63 95.5407 1206.1 96.0269L1208.53 98.7428C1208.68 98.9608 1208.84 99.0698 1209.01 99.0698H1213.73C1214.3 99.0698 1214.58 98.944 1214.58 98.6925C1214.58 98.6087 1214.55 98.5249 1214.5 98.4411L1210.36 93.8893C1210.03 93.5372 1209.87 93.16 1209.87 92.7576C1209.87 92.3553 1210.02 91.9697 1210.33 91.6008C1210.58 91.2655 1211.06 90.7081 1211.77 89.9285C1212.48 89.1489 1213.11 88.4196 1213.64 87.7406C1214.17 87.0616 1214.52 86.4455 1214.7 85.8922L1214.78 85.5653C1214.76 85.5318 1214.75 85.4773 1214.75 85.4019C1214.75 85.3264 1214.74 85.2635 1214.72 85.2133H1210.24C1209.96 85.3138 1209.73 85.4647 1209.56 85.6659L1209.39 86.1437C1208.91 87.3005 1207.66 89.086 1205.65 91.5002C1205.25 91.8355 1204.78 92.0032 1204.25 92.0032Z" fill="#666666"/>
<g clip-path="url(#clip1_2403_681)">
<path d="M1255.48 81.0898C1257.39 81.0898 1258.96 81.1123 1260.17 81.1572C1261.21 81.2021 1262.13 81.3818 1262.93 81.6963C1263.71 81.9958 1264.39 82.43 1264.96 82.999C1265.53 83.568 1265.96 84.2419 1266.26 85.0205C1266.57 85.8291 1266.75 86.75 1266.8 87.7832C1266.84 88.9961 1266.87 90.5609 1266.87 92.4775C1266.87 94.3942 1266.84 95.959 1266.8 97.1719C1266.75 98.2051 1266.57 99.126 1266.26 99.9346C1265.96 100.713 1265.53 101.387 1264.96 101.956C1264.39 102.525 1263.71 102.959 1262.93 103.259C1262.13 103.573 1261.21 103.753 1260.17 103.798C1258.96 103.843 1257.39 103.865 1255.48 103.865C1253.56 103.865 1252 103.843 1250.78 103.798C1249.75 103.753 1248.83 103.573 1248.02 103.259C1247.24 102.959 1246.57 102.525 1246 101.956C1245.43 101.387 1245 100.713 1244.7 99.9346C1244.38 99.126 1244.2 98.2051 1244.16 97.1719C1244.11 95.959 1244.09 94.3942 1244.09 92.4775C1244.09 90.5609 1244.11 88.9961 1244.16 87.7832C1244.2 86.75 1244.38 85.8291 1244.7 85.0205C1245 84.2419 1245.43 83.568 1246 82.999C1246.57 82.43 1247.24 81.9958 1248.02 81.6963C1248.83 81.3818 1249.75 81.2021 1250.78 81.1572C1252 81.1123 1253.56 81.0898 1255.48 81.0898ZM1255.48 82.5723C1253.49 82.5723 1251.86 82.5947 1250.6 82.6396C1249.79 82.6696 1249.05 82.8118 1248.36 83.0664C1247.28 83.5156 1246.52 84.2793 1246.07 85.3574C1245.81 86.0462 1245.67 86.7949 1245.64 87.6035C1245.59 88.8613 1245.57 90.486 1245.57 92.4775C1245.57 94.4691 1245.59 96.0937 1245.64 97.3516C1245.67 98.1602 1245.81 98.9089 1246.07 99.5977C1246.52 100.676 1247.28 101.439 1248.36 101.889C1249.05 102.143 1249.79 102.285 1250.6 102.315C1251.86 102.36 1253.49 102.383 1255.48 102.383C1257.47 102.383 1259.09 102.36 1260.35 102.315C1261.16 102.285 1261.91 102.143 1262.6 101.889C1263.68 101.439 1264.44 100.676 1264.89 99.5977C1265.14 98.9089 1265.29 98.1602 1265.32 97.3516C1265.36 96.0937 1265.38 94.4691 1265.38 92.4775C1265.38 90.486 1265.36 88.8613 1265.32 87.6035C1265.29 86.7949 1265.14 86.0462 1264.89 85.3574C1264.44 84.2793 1263.68 83.5156 1262.6 83.0664C1261.91 82.8118 1261.16 82.6696 1260.35 82.6396C1259.09 82.5947 1257.47 82.5723 1255.48 82.5723ZM1255.48 97.0371C1256.74 97.0371 1257.81 96.5916 1258.7 95.7007C1259.59 94.8097 1260.04 93.7354 1260.04 92.4775C1260.04 91.2197 1259.59 90.1453 1258.7 89.2544C1257.81 88.3634 1256.74 87.918 1255.48 87.918C1254.22 87.918 1253.15 88.3634 1252.25 89.2544C1251.36 90.1453 1250.92 91.2197 1250.92 92.4775C1250.92 93.7354 1251.36 94.8097 1252.25 95.7007C1253.15 96.5916 1254.22 97.0371 1255.48 97.0371ZM1255.48 86.6377C1257.09 86.6377 1258.47 87.2067 1259.61 88.3447C1260.75 89.4827 1261.32 90.8604 1261.32 92.4775C1261.32 94.0947 1260.75 95.4723 1259.61 96.6104C1258.47 97.7484 1257.09 98.3174 1255.48 98.3174C1253.86 98.3174 1252.48 97.7484 1251.34 96.6104C1250.21 95.4723 1249.64 94.0947 1249.64 92.4775C1249.64 90.8604 1250.21 89.4827 1251.34 88.3447C1252.48 87.2067 1253.86 86.6377 1255.48 86.6377ZM1262.93 86.4131C1262.93 86.7874 1262.8 87.1056 1262.53 87.3677C1262.26 87.6297 1261.93 87.7607 1261.54 87.7607C1261.17 87.7607 1260.85 87.6297 1260.59 87.3677C1260.33 87.1056 1260.19 86.7874 1260.19 86.4131C1260.19 86.0238 1260.33 85.6943 1260.59 85.4248C1260.85 85.1553 1261.17 85.0205 1261.54 85.0205C1261.92 85.0205 1262.24 85.159 1262.52 85.436C1262.8 85.7131 1262.93 86.0387 1262.93 86.4131Z" fill="#666666"/>
</g>
<path d="M1309 77.7498H1305.5C1303.95 77.7498 1302.47 78.46 1301.38 79.7242C1300.28 80.9885 1299.67 82.7031 1299.67 84.491V88.5358H1296.17V93.9288H1299.67V104.715H1304.33V93.9288H1307.83L1309 88.5358H1304.33V84.491C1304.33 84.1334 1304.46 83.7905 1304.68 83.5377C1304.89 83.2848 1305.19 83.1428 1305.5 83.1428H1309V77.7498Z" stroke="#666666" stroke-width="1.1" stroke-linecap="round" stroke-linejoin="round"/>
<defs>
<filter id="filter0_d_2403_681" x="156.279" y="63.3076" width="16.9139" height="31.4871" filterUnits="userSpaceOnUse" color-interpolation-filters="sRGB">
<feFlood flood-opacity="0" result="BackgroundImageFix"/>
<feColorMatrix in="SourceAlpha" type="matrix" values="0 0 0 0 0 0 0 0 0 0 0 0 0 0 0 0 0 0 127 0" result="hardAlpha"/>
<feOffset dy="4"/>
<feGaussianBlur stdDeviation="2"/>
<feComposite in2="hardAlpha" operator="out"/>
<feColorMatrix type="matrix" values="0 0 0 0 0 0 0 0 0 0 0 0 0 0 0 0 0 0 0.25 0"/>
<feBlend mode="normal" in2="BackgroundImageFix" result="effect1_dropShadow_2403_681"/>
<feBlend mode="normal" in="SourceGraphic" in2="effect1_dropShadow_2403_681" result="shape"/>
</filter>
<clipPath id="clip0_2403_681">
<rect x="110" y="63" width="128" height="24" fill="white"/>
</clipPath>
<clipPath id="clip1_2403_681">
<rect width="23" height="23" fill="white" transform="translate(1244 81)"/>
</clipPath>
</defs>
</svg>
