<svg width="129" height="33" viewBox="0 0 129 33" fill="none" xmlns="http://www.w3.org/2000/svg">
<path d="M0.0913086 10.4899C0.0913086 9.63485 0.643204 9.17381 1.747 9.10674L6.0004 9.13189C6.28586 9.13189 6.47617 9.25763 6.57133 9.50911C7.00904 10.7665 7.49908 11.8521 8.04146 12.7658C8.58384 13.6795 9.29274 14.7315 10.1682 15.9218C10.2443 16.0727 10.368 16.1482 10.5393 16.1482C10.6725 16.1482 10.7772 16.0895 10.8533 15.9721L10.9389 15.6955L10.9675 11.3449C10.9675 11.0431 10.8866 10.842 10.7248 10.7414C10.5631 10.6408 10.2633 10.5653 9.82561 10.515C9.48305 10.4647 9.31178 10.2803 9.31178 9.96177C9.31178 9.89471 9.32129 9.84442 9.34032 9.81089C9.73997 8.72114 10.8818 8.17627 12.7659 8.17627L14.3645 8.15112C15.0877 8.15112 15.6871 8.31039 16.1629 8.62893C16.6387 8.94747 16.8766 9.45043 16.8766 10.1378V15.8464C17.0098 15.9302 17.1335 15.9721 17.2477 15.9721C17.5331 15.9721 17.7805 15.8212 17.9899 15.5195C20.0833 12.9376 21.2156 11.2108 21.3869 10.339C21.3869 10.3222 21.4059 10.2803 21.444 10.2133C21.5772 9.96177 21.796 9.74383 22.1005 9.55941C22.405 9.37499 22.6715 9.24925 22.8998 9.18219C22.976 9.14866 23.0616 9.13189 23.1567 9.13189H27.5814L27.8669 9.15704C28.2475 9.15704 28.5425 9.31631 28.7518 9.63485C28.828 9.73544 28.8803 9.84442 28.9088 9.96177C28.9374 10.0791 28.9564 10.1965 28.9659 10.3138C28.9754 10.4312 28.9802 10.4983 28.9802 10.515V10.6911C28.847 11.3784 28.5092 12.1119 27.9668 12.8915C27.4244 13.6711 26.7346 14.5135 25.8972 15.4189C25.0598 16.3242 24.5365 16.9194 24.3271 17.2044C24.1559 17.4056 24.0702 17.59 24.0702 17.7576C24.0702 17.8918 24.1464 18.0426 24.2986 18.2103L28.4664 22.8375C28.6947 23.1058 28.8089 23.3992 28.8089 23.7177C28.8089 24.1033 28.6376 24.4218 28.2951 24.6733C27.9525 24.9248 27.5434 25.0673 27.0676 25.1008L26.5823 25.126H22.2433C22.2242 25.126 22.1862 25.1302 22.1291 25.1385C22.072 25.1469 22.0339 25.1511 22.0149 25.1511C21.5962 25.1511 21.2061 24.9919 20.8445 24.6733C20.7113 24.5392 19.8168 23.55 18.1611 21.7059C18.066 21.5885 17.9328 21.4795 17.7615 21.3789C17.6854 21.6472 17.5855 22.0328 17.4618 22.5357C17.3381 23.0387 17.2477 23.3992 17.1906 23.6171L17.1049 24.0446C16.9146 24.6314 16.515 24.9835 15.906 25.1008L15.5063 25.126H12.7088C11.1292 25.126 9.55442 24.4889 7.98437 23.2147C6.41432 21.9406 5.00128 20.2934 3.74524 18.2732C2.4892 16.2529 1.3188 13.9016 0.23404 11.2192C0.138886 11.0012 0.0913086 10.7581 0.0913086 10.4899ZM17.2477 17.0032C16.848 17.0032 16.4864 16.9068 16.1629 16.714C15.8394 16.5212 15.6776 16.2571 15.6776 15.9218V10.1378C15.6776 9.8025 15.5825 9.5636 15.3921 9.42109C15.2018 9.27859 14.8688 9.20734 14.393 9.20734L12.7659 9.25763C11.9476 9.25763 11.329 9.38337 10.9104 9.63485C11.7477 9.98692 12.1664 10.5569 12.1664 11.3449V15.7709C12.1283 16.1901 11.938 16.538 11.5955 16.8146C11.2529 17.0912 10.8723 17.2295 10.4536 17.2295C9.8827 17.2295 9.44499 16.9864 9.1405 16.5002C7.65609 14.5219 6.5523 12.6442 5.82912 10.8671L5.57221 10.2133L1.77554 10.1881C1.52814 10.1881 1.39017 10.2007 1.36162 10.2258C1.33307 10.251 1.3188 10.3222 1.3188 10.4396C1.3188 10.5905 1.33783 10.7497 1.37589 10.9174L1.97537 12.3257C3.57396 15.9637 5.31053 18.8306 7.18507 20.9263C9.05962 23.0219 10.9009 24.0698 12.7088 24.0698H15.5634C15.6776 24.0698 15.7632 24.0404 15.8203 23.9817C15.8774 23.9231 15.925 23.8099 15.9631 23.6422L16.0202 23.3908L16.5625 21.1778C16.7148 20.876 16.848 20.6748 16.9622 20.5742C17.1715 20.3898 17.4189 20.2976 17.7044 20.2976C18.1611 20.2976 18.6274 20.5407 19.1032 21.0269L21.5296 23.7428C21.6819 23.9608 21.8436 24.0698 22.0149 24.0698H26.725C27.296 24.0698 27.5814 23.944 27.5814 23.6925C27.5814 23.6087 27.5529 23.5249 27.4958 23.4411L23.3566 18.8893C23.033 18.5372 22.8713 18.16 22.8713 17.7576C22.8713 17.3553 23.0235 16.9697 23.328 16.6008C23.5754 16.2655 24.056 15.7081 24.7696 14.9285C25.4833 14.1489 26.1065 13.4196 26.6394 12.7406C27.1723 12.0616 27.5243 11.4455 27.6956 10.8922L27.7813 10.5653C27.7622 10.5318 27.7527 10.4773 27.7527 10.4019C27.7527 10.3264 27.7432 10.2635 27.7242 10.2133H23.2424C22.9569 10.3138 22.7286 10.4647 22.5573 10.6659L22.386 11.1437C21.9102 12.3005 20.6637 14.086 18.6464 16.5002C18.2468 16.8355 17.7805 17.0032 17.2477 17.0032Z" fill="#666666"/>
<g clip-path="url(#clip0_2403_683)">
<path d="M68.4775 6.08984C70.3942 6.08984 71.959 6.1123 73.1719 6.15723C74.2051 6.20215 75.126 6.38184 75.9346 6.69629C76.7132 6.99577 77.387 7.43001 77.9561 7.99902C78.5251 8.56803 78.9593 9.24186 79.2588 10.0205C79.5732 10.8291 79.7529 11.75 79.7979 12.7832C79.8428 13.9961 79.8652 15.5609 79.8652 17.4775C79.8652 19.3942 79.8428 20.959 79.7979 22.1719C79.7529 23.2051 79.5732 24.126 79.2588 24.9346C78.9593 25.7132 78.5251 26.387 77.9561 26.9561C77.387 27.5251 76.7132 27.9593 75.9346 28.2588C75.126 28.5732 74.2051 28.7529 73.1719 28.7978C71.959 28.8428 70.3942 28.8652 68.4775 28.8652C66.5609 28.8652 64.9961 28.8428 63.7832 28.7978C62.75 28.7529 61.8291 28.5732 61.0205 28.2588C60.2419 27.9593 59.568 27.5251 58.999 26.9561C58.43 26.387 57.9958 25.7132 57.6963 24.9346C57.3818 24.126 57.2021 23.2051 57.1572 22.1719C57.1123 20.959 57.0898 19.3942 57.0898 17.4775C57.0898 15.5609 57.1123 13.9961 57.1572 12.7832C57.2021 11.75 57.3818 10.8291 57.6963 10.0205C57.9958 9.24186 58.43 8.56803 58.999 7.99902C59.568 7.43001 60.2419 6.99577 61.0205 6.69629C61.8291 6.38184 62.75 6.20215 63.7832 6.15723C64.9961 6.1123 66.5609 6.08984 68.4775 6.08984ZM68.4775 7.57227C66.486 7.57227 64.8613 7.59473 63.6035 7.63965C62.7949 7.6696 62.0462 7.81185 61.3574 8.06641C60.2793 8.51562 59.5156 9.2793 59.0664 10.3574C58.8118 11.0462 58.6696 11.7949 58.6396 12.6035C58.5947 13.8613 58.5723 15.486 58.5723 17.4775C58.5723 19.4691 58.5947 21.0937 58.6396 22.3516C58.6696 23.1602 58.8118 23.9089 59.0664 24.5977C59.5156 25.6758 60.2793 26.4395 61.3574 26.8887C62.0462 27.1432 62.7949 27.2855 63.6035 27.3154C64.8613 27.3603 66.486 27.3828 68.4775 27.3828C70.4691 27.3828 72.0938 27.3603 73.3516 27.3154C74.1602 27.2855 74.9089 27.1432 75.5977 26.8887C76.6758 26.4395 77.4395 25.6758 77.8887 24.5977C78.1432 23.9089 78.2855 23.1602 78.3154 22.3516C78.3604 21.0937 78.3828 19.4691 78.3828 17.4775C78.3828 15.486 78.3604 13.8613 78.3154 12.6035C78.2855 11.7949 78.1432 11.0462 77.8887 10.3574C77.4395 9.2793 76.6758 8.51562 75.5977 8.06641C74.9089 7.81185 74.1602 7.6696 73.3516 7.63965C72.0938 7.59473 70.4691 7.57227 68.4775 7.57227ZM68.4775 22.0371C69.7354 22.0371 70.8097 21.5916 71.7007 20.7007C72.5916 19.8097 73.0371 18.7354 73.0371 17.4775C73.0371 16.2197 72.5916 15.1453 71.7007 14.2544C70.8097 13.3634 69.7354 12.918 68.4775 12.918C67.2197 12.918 66.1453 13.3634 65.2544 14.2544C64.3634 15.1453 63.918 16.2197 63.918 17.4775C63.918 18.7354 64.3634 19.8097 65.2544 20.7007C66.1453 21.5916 67.2197 22.0371 68.4775 22.0371ZM68.4775 11.6377C70.0947 11.6377 71.4723 12.2067 72.6104 13.3447C73.7484 14.4827 74.3174 15.8604 74.3174 17.4775C74.3174 19.0947 73.7484 20.4723 72.6104 21.6104C71.4723 22.7484 70.0947 23.3174 68.4775 23.3174C66.8604 23.3174 65.4827 22.7484 64.3447 21.6104C63.2067 20.4723 62.6377 19.0947 62.6377 17.4775C62.6377 15.8604 63.2067 14.4827 64.3447 13.3447C65.4827 12.2067 66.8604 11.6377 68.4775 11.6377ZM75.9346 11.4131C75.9346 11.7874 75.7998 12.1056 75.5303 12.3677C75.2607 12.6297 74.9313 12.7607 74.542 12.7607C74.1676 12.7607 73.8494 12.6297 73.5874 12.3677C73.3254 12.1056 73.1943 11.7874 73.1943 11.4131C73.1943 11.0238 73.3254 10.6943 73.5874 10.4248C73.8494 10.1553 74.1676 10.0205 74.542 10.0205C74.9163 10.0205 75.242 10.159 75.519 10.436C75.7961 10.7131 75.9346 11.0387 75.9346 11.4131Z" fill="#666666"/>
</g>
<path d="M122 2.74976H118.5C116.953 2.74976 115.469 3.45999 114.375 4.72423C113.281 5.98846 112.667 7.70313 112.667 9.49103V13.5358H109.167V18.9288H112.667V29.7148H117.333V18.9288H120.833L122 13.5358H117.333V9.49103C117.333 9.13345 117.456 8.79051 117.675 8.53767C117.894 8.28482 118.191 8.14277 118.5 8.14277H122V2.74976Z" stroke="#666666" stroke-width="1.1" stroke-linecap="round" stroke-linejoin="round"/>
<defs>
<clipPath id="clip0_2403_683">
<rect width="23" height="23" fill="white" transform="translate(57 6)"/>
</clipPath>
</defs>
</svg>
